<mxfile host="app.diagrams.net" modified="2024-05-05T14:40:25.924Z" agent="Mozilla/5.0 (Windows NT 10.0; Win64; x64) AppleWebKit/537.36 (KHTML, like Gecko) Chrome/124.0.0.0 Safari/537.36" version="24.0.4" etag="wFasViOMosa9dSbfCNHQ" type="github">
  <diagram name="Page-1" id="3wWcywGtBTforTLanfDm">
    <mxGraphModel>
      <root>
        <mxCell id="0" />
        <mxCell id="1" parent="0" />
      </root>
    </mxGraphModel>
  </diagram>
</mxfile>
